<svg width="24" height="24" viewBox="0 0 24 24" fill="none" xmlns="http://www.w3.org/2000/svg">
<path d="M18.5327 12.7621C18.5048 9.73413 21.0756 8.26101 21.1931 8.19243C19.7372 6.12275 17.4805 5.83997 16.6875 5.81742C14.7921 5.62295 12.9536 6.92319 11.9881 6.92319C11.0034 6.92319 9.51656 5.83621 7.91414 5.86815C5.85209 5.89916 3.92302 7.06317 2.86502 8.87074C0.681566 12.5563 2.31 17.9725 4.40192 20.9516C5.44836 22.4106 6.67113 24.0396 8.27163 23.9823C9.83743 23.9194 10.4223 23.009 12.3119 23.009C14.1841 23.009 14.7333 23.9823 16.3656 23.9457C18.0461 23.9194 19.1041 22.4801 20.1139 21.0079C21.3232 19.3356 21.8089 17.6887 21.8281 17.6042C21.7886 17.591 18.5645 16.3913 18.5327 12.7621Z" fill="white"/>
<path d="M15.4493 3.85766C16.2914 2.8308 16.8677 1.43379 16.7077 0.0161133C15.4888 0.0687243 13.9644 0.838161 13.0866 1.84247C12.31 2.72746 11.6162 4.17802 11.7954 5.54215C13.1646 5.64174 14.5705 4.86854 15.4493 3.85766Z" fill="white"/>
</svg>
