<svg width="21" height="22" viewBox="0 0 21 22" fill="none" xmlns="http://www.w3.org/2000/svg">
<path d="M9.30006 10.5007L0.0600586 20.1607C0.360059 21.1807 1.32006 21.9607 2.46006 21.9607C2.94006 21.9607 3.36006 21.8407 3.72006 21.6007L14.1601 15.6607L9.30006 10.5007Z" fill="#EA4335"/>
<path d="M18.6601 8.82097L14.1601 6.24097L9.12012 10.681L14.2201 15.661L18.7201 13.141C19.5001 12.721 20.0401 11.881 20.0401 10.981C19.9801 10.081 19.4401 9.24097 18.6601 8.82097Z" fill="#FBBC04"/>
<path d="M0.0600002 1.80103C2.27988e-07 1.98103 0 2.22103 0 2.46103V19.561C0 19.801 2.27988e-07 19.981 0.0600002 20.221L9.66 10.801L0.0600002 1.80103Z" fill="#4285F4"/>
<path d="M9.36006 10.98L14.1601 6.24L3.78006 0.36C3.42006 0.12 2.94006 0 2.46006 0C1.32006 0 0.300059 0.78 0.0600586 1.8L9.36006 10.98Z" fill="#34A853"/>
</svg>
